<svg xmlns="http://www.w3.org/2000/svg" viewBox="0 0 64 64">
  <rect width="64" height="64" rx="14" fill="#f8fafc"/>
  <path d="M20 12h25a5 5 0 0 1 5 5v34a5 5 0 0 1-5 5H20a6 6 0 0 1-6-6V18a6 6 0 0 1 6-6Z" fill="#1f2937"/>
  <path d="M21 16h23a2 2 0 0 1 2 2v31a2 2 0 0 1-2 2H21a3 3 0 0 1-3-3V19a3 3 0 0 1 3-3Z" fill="#ffffff"/>
  <path d="M24 25h16M24 33h12M24 41h17" stroke="#64748b" stroke-width="3" stroke-linecap="round"/>
  <path d="M39 20v19.5a5.5 5.5 0 1 1-3-4.9V23l13-3.5v15a5.5 5.5 0 1 1-3-4.9V18.1L39 20Z" fill="#0f766e"/>
  <path d="M46 18.1V24l-7 1.9V20l7-1.9Z" fill="#14b8a6"/>
</svg>
